<?xml version="1.0" encoding="iso-8859-1"?>
<!-- Generator: Adobe Illustrator 16.1.1, SVG Export Plug-In . SVG Version: 6.00 Build 0)  -->
<!DOCTYPE svg PUBLIC "-//W3C//DTD SVG 1.1//EN" "http://www.w3.org/Graphics/SVG/1.1/DTD/svg11.dtd">
<svg version="1.1" id="&#x30EC;&#x30A4;&#x30E4;&#x30FC;_1"
	 xmlns="http://www.w3.org/2000/svg" xmlns:xlink="http://www.w3.org/1999/xlink" x="0px" y="0px" width="841.89px"
	 height="595.28px" viewBox="0 0 841.89 595.28" style="enable-background:new 0 0 841.89 595.28;" xml:space="preserve">
<path d="M136.112,179.503l-3.597-3.223l-51.583,57.581V176.91h-4.829v115.906h4.829V235.41l51.593,56.793l3.575-3.248
	l-49.362-54.336L136.112,179.503z M80.932,234.532l0.126,0.114l-0.126,0.114V234.532z"/>
<path d="M195.581,86.74c9.327-4.542,15.77-14.103,15.77-25.139v-1.608c0-15.414-12.565-27.954-28.009-27.954H156.46v-0.019h-5.116
	v117.147h5.116v-0.025h30.045c15.697,0,30.888-14.765,30.888-31.921v-1.808C217.393,101.727,206.84,90.891,195.581,86.74z
	 M156.46,36.9h26.881c12.796,0,23.208,10.359,23.208,23.093v1.608c0,12.734-10.411,23.093-23.208,23.093H156.46V36.9z
	 M212.604,117.222c0,14.482-13.042,27.073-26.099,27.073H156.46V89.957h30.045c13.057,0,26.099,10.975,26.099,25.458V117.222z"/>
<path d="M286.297,121.888c-0.833,12.428-11.156,22.284-23.733,22.284h-9.679c-13.12,0-23.793-10.724-23.793-23.905V61.113
	c0-13.181,10.674-23.904,23.793-23.904h9.679c13.12,0,23.793,10.723,23.793,23.904v3.646h4.839v-3.646
	c0-15.862-12.845-28.767-28.633-28.767h-9.679c-15.788,0-28.632,12.905-28.632,28.767v59.154c0,15.862,12.845,28.767,28.632,28.767
	h9.679c15.247,0,27.745-12.035,28.584-27.146H286.297z"/>
<path d="M354.562,48.289c-13.104-10.45-31.523-16.206-51.869-16.206c-0.674,0-1.345,0.021-2.016,0.04v4.839v107.192v4.85
	c0.67,0.016,1.341,0.029,2.016,0.029c20.851,0,38.717-5.19,51.671-15.009c13.686-10.375,20.92-25.266,20.92-43.063
	C375.283,74.101,367.924,58.946,354.562,48.289z M305.516,144.149V36.971c38.373,1.027,64.929,22.931,64.929,53.991
	C370.444,122.551,345.057,143.21,305.516,144.149z"/>
<polygon points="138.535,31.536 135.852,31.536 79.678,119.162 79.678,128.153 136.255,39.898 136.255,121.992 100.767,121.992 
	100.767,126.876 136.255,126.876 136.255,148.856 141.095,148.856 141.095,31.627 138.675,31.627 "/>
<polygon points="440.401,36.783 440.401,31.943 382.866,31.943 382.866,148.631 440.401,148.631 440.401,143.791 387.706,143.791 
	387.706,89.749 430.992,89.749 430.992,84.91 387.706,84.91 387.706,36.783 "/>
<polygon points="472.614,89.749 515.9,89.749 515.9,84.91 472.614,84.91 472.614,36.783 525.31,36.783 525.31,31.943 
	467.774,31.943 467.774,148.631 472.615,148.631 "/>
<path d="M590.97,37.125c2.66-0.214,5.364-0.337,8.115-0.337c0.068,0,0.134,0.003,0.202,0.003v-4.668
	c-0.671-0.019-1.343-0.04-2.017-0.04c-20.346,0-38.765,5.756-51.868,16.206c-13.362,10.658-20.722,25.813-20.722,42.673
	c0,17.797,7.233,32.687,20.919,43.063c12.954,9.819,30.821,15.009,51.671,15.009c0.675,0,1.346-0.014,2.017-0.029v-4.85V92.236
	c-0.013,0-0.022,0-0.035,0v-0.578h-38.981v4.817h34.177v47.674c-39.54-0.939-64.927-21.598-64.927-53.188
	C529.521,60.85,554.479,39.344,590.97,37.125z"/>
<polygon points="673.511,32.169 673.511,86.234 616.245,86.234 616.245,32.169 611.405,32.169 611.405,148.856 616.245,148.856 
	616.245,91.097 673.511,91.097 673.511,148.856 678.351,148.856 678.351,32.169 "/>
<g>
	<polygon points="698.123,148.857 693.283,148.857 693.283,31.627 698.123,31.627 698.123,148.857 	"/>
</g>
<path d="M774.018,31.928v90.757c0,12.511-10.132,21.068-22.583,21.068h-12.1c-12.453,0-22.583-10.178-22.583-22.689v-8.914h-4.84
	v8.914c0,15.192,12.303,27.551,27.423,27.551h12.1c15.12,0,27.423-10.739,27.423-25.931V31.928H774.018z"/>
<g>
	<polygon points="204.794,293.182 152.207,293.182 152.207,176.323 157.036,176.323 157.036,288.302 204.794,288.302 
		204.794,293.182 	"/>
</g>
<polygon points="223.73,293.542 223.73,191.244 255.527,292.865 286.05,192.516 286.05,293.542 290.939,293.542 290.939,176.256 
	285.881,176.256 255.461,276.266 224.167,176.256 218.841,176.256 218.841,293.542 "/>
<polygon points="372.909,314.606 385.71,415.335 412.517,316.099 438.057,414.062 450.858,314.606 455.718,314.606 441.316,431.96 
	437.89,431.96 412.451,336.782 386.146,431.96 382.451,431.96 368.05,314.606 "/>
<polygon points="316.14,185.35 367.74,293.178 373.288,293.178 373.288,176.256 368.458,176.256 368.458,283.477 317.148,176.256 
	311.31,176.256 311.31,293.043 316.14,293.043 "/>
<path d="M512.61,176.248h-22.05v-0.017h-4.828v116.813h4.828v-54.653h22.05c17.311,0,31.393-13.939,31.393-31.071
	C544.003,190.187,529.921,176.248,512.61,176.248z M512.61,233.528h-22.05v-52.416h22.05c14.648,0,26.563,11.757,26.563,26.208
	C539.174,221.771,527.259,233.528,512.61,233.528z"/>
<g>
	<path d="M430.489,291.961c-10.107,0-19.526-6.166-26.521-17.362c-6.773-10.844-10.504-25.211-10.504-40.458
		c0-15.245,3.73-29.612,10.504-40.455c6.995-11.197,16.414-17.363,26.521-17.363c10.108,0,19.528,6.167,26.523,17.363
		c6.772,10.843,10.503,25.21,10.503,40.455c0,15.246-3.73,29.614-10.503,40.458C450.018,285.795,440.598,291.961,430.489,291.961
		L430.489,291.961z M430.489,181.153c-17.752,0-32.196,23.771-32.196,52.989c0,29.219,14.444,52.991,32.196,52.991
		c17.753,0,32.197-23.771,32.197-52.991C462.687,204.924,448.242,181.153,430.489,181.153L430.489,181.153z"/>
</g>
<path d="M617.449,275.711c6.772-10.967,10.503-25.496,10.503-40.915c0-15.417-3.73-29.947-10.503-40.913
	c-6.994-11.323-16.414-17.56-26.522-17.56c-10.107,0-19.526,6.237-26.521,17.56c-6.774,10.966-10.505,25.496-10.505,40.913
	c0,15.419,3.73,29.948,10.505,40.915c6.994,11.323,16.413,17.56,26.521,17.56c6.959,0,13.588-2.954,19.324-8.487l7.891,8.528
	l3.525-3.338l-8.122-8.782C614.913,279.523,616.221,277.701,617.449,275.711z M590.927,288.386c-17.753,0-32.196-24.04-32.196-53.59
	c0-29.549,14.443-53.589,32.196-53.589s32.197,24.04,32.197,53.589c0,17.491-5.062,33.048-12.873,42.836l-11.927-12.893
	l-3.524,3.337l12.168,13.155C602.24,285.775,596.766,288.386,590.927,288.386z"/>
<path d="M675.63,238.394c17.309,0,31.391-13.938,31.391-31.071c0-17.133-14.082-31.071-31.391-31.071h-22.051v-0.018h-4.831v116.813
	h4.831V239.37l48.155,53.379l3.574-3.27l-46.087-51.086H675.63z M653.579,181.116h22.051c14.646,0,26.562,11.756,26.562,26.208
	c0,14.451-11.915,26.208-26.562,26.208h-22.051V181.116z"/>
<g>
	<path d="M751.602,293.1c-18.118,0-32.859-14.896-32.859-33.206h4.694c0,15.693,12.636,28.463,28.165,28.463
		c8.098,0,16.177-3.573,21.614-9.56c4.806-5.291,7.137-11.933,6.561-18.701c-1.49-17.587-11.28-27.588-28.307-28.921l0.01-0.154
		l-0.02,0.146c-16.896-2.391-26.98-12.687-26.98-27.541c0-15.187,12.226-27.542,27.253-27.542c14.034,0,25.688,10.624,27.113,24.712
		l-4.67,0.482c-1.179-11.659-10.827-20.449-22.443-20.449c-12.438,0-22.559,10.227-22.559,22.798
		c0,17.67,16.008,21.858,22.917,22.84c19.19,1.599,30.681,13.389,32.363,33.226c0.688,8.107-2.074,16.032-7.781,22.313
		C770.27,289.057,761.131,293.1,751.602,293.1L751.602,293.1z"/>
</g>
<polygon points="157.927,314.481 123.709,314.481 123.709,314.36 118.819,314.36 118.819,314.481 85.397,314.481 85.397,319.37 
	118.819,319.37 118.819,430.968 123.709,430.968 123.709,319.37 157.927,319.37 "/>
<g>
	<path d="M212.061,432.028h-4.89c-19.772,0-32.599-16.496-32.599-36.771v-80.211h4.89v80.211c0,17.58,10.633,31.883,27.709,31.883
		h4.89c17.076,0,27.708-14.303,27.708-31.883v-80.211h4.89v80.211C244.659,415.532,231.833,432.028,212.061,432.028L212.061,432.028
		z"/>
</g>
<polygon points="351.878,314.403 281.92,423.612 281.92,341.431 281.92,336.542 281.92,314.538 277.03,314.538 277.03,431.892 
	279.475,431.892 279.618,431.983 282.328,431.983 357.644,314.403 "/>
<polygon points="481.721,431.214 487.167,431.214 513.532,378.155 539.896,431.214 545.343,431.214 516.255,372.675 545.21,314.403 
	539.764,314.403 513.532,367.194 487.3,314.403 481.854,314.403 510.808,372.675 "/>
<polygon points="631.604,314.403 626.157,314.403 599.925,367.194 573.692,314.403 568.247,314.403 597.202,372.675 
	597.473,373.218 597.473,431.384 602.361,431.384 602.361,373.251 602.648,372.675 "/>
<polygon points="704.106,319.19 704.106,314.302 648.96,314.302 648.96,319.19 698.708,319.19 648.935,426.483 648.96,426.495 
	648.96,431.384 704.106,431.384 704.106,426.493 654.32,426.493 704.098,319.19 "/>
<polygon points="115.723,450.356 110.615,450.356 96,468.991 99.842,472.005 110.84,457.981 110.84,567.749 115.723,567.749 "/>
<path d="M607.015,502.749c9.288-4.416,15.725-13.887,15.725-24.838c0-15.156-12.33-27.486-27.486-27.486
	s-27.486,12.33-27.486,27.486c0,10.926,6.407,20.381,15.661,24.811c-12.675,4.77-21.719,17.016-21.719,31.34
	c0,18.459,15.018,33.477,33.477,33.477s33.477-15.018,33.477-33.477C628.662,519.767,619.652,507.54,607.015,502.749z
	 M572.649,477.911c0-12.463,10.14-22.604,22.604-22.604s22.604,10.141,22.604,22.604c0,12.465-10.14,22.604-22.604,22.604
	S572.649,490.376,572.649,477.911z M595.186,562.653c-15.767,0-28.594-12.826-28.594-28.592c0-15.768,12.827-28.596,28.594-28.596
	s28.594,12.828,28.594,28.596C623.779,549.827,610.952,562.653,595.186,562.653z"/>
<path d="M634.263,589.238"/>
<path d="M634.37,595.238"/>
<path d="M131.458,562.866c0,0,49.572-70.5,50.621-72.564c1.729-3.402,2.765-7.207,2.933-11.236c0.016-0.385,0.042-0.766,0.042-1.154
	c0-15.156-12.331-27.486-27.486-27.486c-15.157,0-27.488,12.33-27.488,27.486c0,0.518,0.028,1.029,0.057,1.539h4.884
	c-0.034-0.51-0.058-1.021-0.058-1.539c0-12.463,10.14-22.604,22.605-22.604c12.463,0,22.604,10.141,22.604,22.604
	c0,3.516-0.807,6.848-2.246,9.816l-52.358,75.139l-0.01,4.916l2.604-0.033h56.599v-4.883H131.458z"/>
<path d="M237.009,502.749c9.288-4.416,15.725-13.887,15.725-24.838c0-15.156-12.33-27.486-27.486-27.486
	s-27.487,12.33-27.487,27.486c0,0.152,0.014,0.303,0.017,0.453h4.878c-0.003-0.15-0.012-0.301-0.012-0.453
	c0-12.463,10.141-22.604,22.604-22.604s22.604,10.141,22.604,22.604c0,12.465-10.14,22.604-22.604,22.604
	c-0.479,0-0.954-0.02-1.425-0.049v5.035c0.45-0.021,0.902-0.035,1.357-0.035c15.766,0,28.593,12.828,28.593,28.596
	c0,15.766-12.827,28.592-28.593,28.592c-15.157,0-27.591-11.855-28.53-26.779h-4.896c0.945,17.619,15.575,31.664,33.426,31.664
	c18.458,0,33.476-15.018,33.476-33.477C258.656,519.767,249.646,507.54,237.009,502.749z"/>
<path d="M327.448,539.401v-89.248h-5.736l-54.214,81.32v12.811h55.067v23.287h4.883v-23.287h12.207v-4.883H327.448z
	 M322.565,539.401h-54.484l54.484-81.727V539.401z"/>
<path d="M383.33,500.583c-8.731,0-16.686,3.367-22.651,8.861v-54.172h39.91v-4.883H355.83v0.002h-0.034v64.662
	c-0.047,0.07-0.1,0.135-0.147,0.205h0.147h4.883h1.137c5.245-5.994,12.942-9.793,21.515-9.793c15.767,0,28.594,12.828,28.594,28.596
	c0,15.766-12.827,28.592-28.594,28.592c-14.555,0-26.596-10.934-28.362-25.016h-4.921c1.791,16.783,16.032,29.9,33.283,29.9
	c18.459,0,33.477-15.018,33.477-33.477S401.789,500.583,383.33,500.583z"/>
<path d="M459.009,500.583c-5.825,0-11.306,1.498-16.081,4.127l30.146-53.08l-4.246-2.41l-37.526,66.074
	c-0.992,1.461-1.867,3.006-2.622,4.617c-0.891,1.902-1.609,3.898-2.133,5.973c-0.659,2.619-1.014,5.357-1.014,8.178
	c0,18.459,15.017,33.477,33.477,33.477c18.459,0,33.477-15.018,33.477-33.477S477.468,500.583,459.009,500.583z M459.009,562.653
	c-15.768,0-28.594-12.826-28.594-28.592c0-4.254,0.94-8.291,2.613-11.922l2.407-4.24c5.159-7.502,13.8-12.434,23.573-12.434
	c15.767,0,28.594,12.828,28.594,28.596C487.603,549.827,474.775,562.653,459.009,562.653z"/>
<path d="M668.157,516.173c5.824,0,11.305-1.498,16.081-4.125l-30.146,53.078l4.245,2.412l37.527-66.076
	c0.991-1.459,1.866-3.004,2.621-4.617c0.892-1.9,1.61-3.896,2.134-5.973c0.659-2.617,1.014-5.355,1.014-8.176
	c0-18.459-15.018-33.477-33.477-33.477s-33.477,15.018-33.477,33.477S649.698,516.173,668.157,516.173z M668.157,454.103
	c15.767,0,28.594,12.828,28.594,28.594c0,4.254-0.941,8.289-2.614,11.922l-2.407,4.238c-5.159,7.502-13.8,12.434-23.572,12.434
	c-15.767,0-28.594-12.828-28.594-28.594S652.391,454.103,668.157,454.103z"/>
<polygon points="562.368,450.153 507.028,450.153 507.028,455.036 556.97,455.036 505.83,565.571 510.262,567.622 562.347,455.044 
	562.329,455.036 562.368,455.036 "/>
</svg>
