<?xml version="1.0" encoding="iso-8859-1"?>
<!-- Generator: Adobe Illustrator 16.1.1, SVG Export Plug-In . SVG Version: 6.00 Build 0)  -->
<!DOCTYPE svg PUBLIC "-//W3C//DTD SVG 1.1//EN" "http://www.w3.org/Graphics/SVG/1.1/DTD/svg11.dtd">
<svg version="1.1" id="&#x30EC;&#x30A4;&#x30E4;&#x30FC;_1"
	 xmlns="http://www.w3.org/2000/svg" xmlns:xlink="http://www.w3.org/1999/xlink" x="0px" y="0px" width="100px" height="150px"
	 viewBox="0 0 100 150" style="enable-background:new 0 0 100 150;" xml:space="preserve">
<g>
	<path style="fill:#040000;" d="M48.979,131.875c-17.808,0-32.297-16.621-32.297-37.055V50.463
		c0-20.431,14.489-37.053,32.297-37.053s32.298,16.622,32.298,37.053V94.82C81.277,115.254,66.787,131.875,48.979,131.875
		L48.979,131.875z M48.979,18.208c-15.163,0-27.498,14.47-27.498,32.255V94.82c0,17.787,12.335,32.256,27.498,32.256
		c15.164,0,27.498-14.469,27.498-32.256V50.463C76.477,32.678,64.143,18.208,48.979,18.208L48.979,18.208z"/>
</g>
</svg>
