<?xml version="1.0" encoding="iso-8859-1"?>
<!-- Generator: Adobe Illustrator 16.1.1, SVG Export Plug-In . SVG Version: 6.00 Build 0)  -->
<!DOCTYPE svg PUBLIC "-//W3C//DTD SVG 1.1//EN" "http://www.w3.org/Graphics/SVG/1.1/DTD/svg11.dtd">
<svg version="1.1" id="&#x30EC;&#x30A4;&#x30E4;&#x30FC;_1"
	 xmlns="http://www.w3.org/2000/svg" xmlns:xlink="http://www.w3.org/1999/xlink" x="0px" y="0px" width="100px" height="150px"
	 viewBox="0 0 100 150" style="enable-background:new 0 0 100 150;" xml:space="preserve">
<path style="fill:#040000;" d="M25.131,127.091c0,0,49.572-70.5,50.621-72.563c1.729-3.402,2.766-7.207,2.934-11.236
	c0.016-0.385,0.042-0.766,0.042-1.154c0-15.155-12.331-27.485-27.486-27.485c-15.157,0-27.488,12.33-27.488,27.485
	c0,0.519,0.028,1.029,0.058,1.539h4.884c-0.034-0.51-0.059-1.021-0.059-1.539c0-12.463,10.141-22.604,22.605-22.604
	c12.463,0,22.604,10.141,22.604,22.604c0,3.517-0.807,6.849-2.246,9.816l-52.357,75.139l-0.01,4.916l2.604-0.032h56.6v-4.884
	L25.131,127.091L25.131,127.091z"/>
</svg>
