<?xml version="1.0" encoding="iso-8859-1"?>
<!-- Generator: Adobe Illustrator 16.1.1, SVG Export Plug-In . SVG Version: 6.00 Build 0)  -->
<!DOCTYPE svg PUBLIC "-//W3C//DTD SVG 1.1//EN" "http://www.w3.org/Graphics/SVG/1.1/DTD/svg11.dtd">
<svg version="1.1" id="&#x30EC;&#x30A4;&#x30E4;&#x30FC;_1"
	 xmlns="http://www.w3.org/2000/svg" xmlns:xlink="http://www.w3.org/1999/xlink" x="0px" y="0px" width="100px" height="150px"
	 viewBox="0 0 100 150" style="enable-background:new 0 0 100 150;" xml:space="preserve">
<path style="fill:#040000;" d="M60.783,67.218c9.288-4.415,15.726-13.887,15.726-24.838c0-15.155-12.33-27.485-27.486-27.485
	S21.536,27.225,21.536,42.38c0,0.152,0.014,0.304,0.017,0.453h4.878c-0.003-0.149-0.012-0.301-0.012-0.453
	c0-12.463,10.141-22.604,22.604-22.604S71.627,29.917,71.627,42.38c0,12.466-10.141,22.604-22.604,22.604
	c-0.479,0-0.954-0.021-1.425-0.049v5.035c0.45-0.021,0.902-0.035,1.357-0.035c15.766,0,28.593,12.828,28.593,28.596
	c0,15.766-12.827,28.592-28.593,28.592c-15.157,0-27.592-11.854-28.53-26.779h-4.896c0.945,17.619,15.575,31.664,33.427,31.664
	c18.458,0,33.476-15.018,33.476-33.477C82.431,84.236,73.421,72.009,60.783,67.218z"/>
</svg>
