<?xml version="1.0" encoding="iso-8859-1"?>
<!-- Generator: Adobe Illustrator 16.1.1, SVG Export Plug-In . SVG Version: 6.00 Build 0)  -->
<!DOCTYPE svg PUBLIC "-//W3C//DTD SVG 1.1//EN" "http://www.w3.org/Graphics/SVG/1.1/DTD/svg11.dtd">
<svg version="1.1" id="&#x30EC;&#x30A4;&#x30E4;&#x30FC;_1"
	 xmlns="http://www.w3.org/2000/svg" xmlns:xlink="http://www.w3.org/1999/xlink" x="0px" y="0px" width="100px" height="150px"
	 viewBox="0 0 100 150" style="enable-background:new 0 0 100 150;" xml:space="preserve">
<path style="fill:#040000;" d="M48.88,65.055c-8.73,0-16.686,3.366-22.65,8.86V19.743h39.911V14.86H21.38v0.002h-0.033v64.662
	c-0.048,0.069-0.101,0.135-0.147,0.205h0.147h4.883h1.137c5.245-5.994,12.942-9.793,21.515-9.793
	c15.767,0,28.595,12.828,28.595,28.596c0,15.766-12.828,28.592-28.595,28.592c-14.555,0-26.596-10.934-28.361-25.016h-4.921
	c1.791,16.783,16.031,29.899,33.282,29.899c18.458,0,33.478-15.018,33.478-33.477S67.34,65.055,48.88,65.055z"/>
</svg>
