<?xml version="1.0" encoding="iso-8859-1"?>
<!-- Generator: Adobe Illustrator 16.1.1, SVG Export Plug-In . SVG Version: 6.00 Build 0)  -->
<!DOCTYPE svg PUBLIC "-//W3C//DTD SVG 1.1//EN" "http://www.w3.org/Graphics/SVG/1.1/DTD/svg11.dtd">
<svg version="1.1" id="&#x30EC;&#x30A4;&#x30E4;&#x30FC;_1"
	 xmlns="http://www.w3.org/2000/svg" xmlns:xlink="http://www.w3.org/1999/xlink" x="0px" y="0px" width="100px" height="150px"
	 viewBox="0 0 100 150" style="enable-background:new 0 0 100 150;" xml:space="preserve">
<path style="fill:#040000;" d="M48.979,65.053c-5.825,0-11.307,1.497-16.081,4.127L63.044,16.1l-4.246-2.41L21.272,79.764
	c-0.992,1.461-1.867,3.006-2.622,4.617c-0.892,1.902-1.609,3.898-2.133,5.973c-0.659,2.619-1.015,5.357-1.015,8.178
	c0,18.459,15.018,33.477,33.478,33.477c18.459,0,33.477-15.018,33.477-33.477S67.438,65.053,48.979,65.053z M48.979,127.123
	c-15.769,0-28.595-12.826-28.595-28.592c0-4.254,0.94-8.291,2.613-11.922l2.407-4.24c5.159-7.502,13.8-12.434,23.573-12.434
	c15.767,0,28.594,12.829,28.594,28.596C77.573,114.297,64.745,127.123,48.979,127.123z"/>
</svg>
