<?xml version="1.0" encoding="iso-8859-1"?>
<!-- Generator: Adobe Illustrator 16.1.1, SVG Export Plug-In . SVG Version: 6.00 Build 0)  -->
<!DOCTYPE svg PUBLIC "-//W3C//DTD SVG 1.1//EN" "http://www.w3.org/Graphics/SVG/1.1/DTD/svg11.dtd">
<svg version="1.1" id="&#x30EC;&#x30A4;&#x30E4;&#x30FC;_1"
	 xmlns="http://www.w3.org/2000/svg" xmlns:xlink="http://www.w3.org/1999/xlink" x="0px" y="0px" width="100px" height="150px"
	 viewBox="0 0 100 150" style="enable-background:new 0 0 100 150;" xml:space="preserve">
<path style="fill:#040000;" d="M60.369,67.086c9.288-4.415,15.725-13.887,15.725-24.838c0-15.155-12.33-27.485-27.485-27.485
	c-15.156,0-27.486,12.33-27.486,27.485c0,10.927,6.407,20.382,15.661,24.812c-12.675,4.77-21.72,17.016-21.72,31.34
	c0,18.459,15.019,33.477,33.478,33.477S82.018,116.859,82.018,98.4C82.016,84.105,73.006,71.877,60.369,67.086z M26.003,42.249
	c0-12.463,10.14-22.604,22.604-22.604c12.464,0,22.604,10.141,22.604,22.604c0,12.466-10.14,22.604-22.604,22.604
	C36.143,64.853,26.003,54.714,26.003,42.249z M48.54,126.99c-15.768,0-28.594-12.826-28.594-28.592
	c0-15.768,12.827-28.595,28.594-28.595s28.594,12.828,28.594,28.595C77.133,114.164,64.306,126.99,48.54,126.99z"/>
</svg>
