<?xml version="1.0" encoding="iso-8859-1"?>
<!-- Generator: Adobe Illustrator 16.1.1, SVG Export Plug-In . SVG Version: 6.00 Build 0)  -->
<!DOCTYPE svg PUBLIC "-//W3C//DTD SVG 1.1//EN" "http://www.w3.org/Graphics/SVG/1.1/DTD/svg11.dtd">
<svg version="1.1" id="&#x30EC;&#x30A4;&#x30E4;&#x30FC;_1"
	 xmlns="http://www.w3.org/2000/svg" xmlns:xlink="http://www.w3.org/1999/xlink" x="0px" y="0px" width="100px" height="150px"
	 viewBox="0 0 100 150" style="enable-background:new 0 0 100 150;" xml:space="preserve">
<path style="fill:#040000;" d="M48.7,80.512c5.824,0,11.306-1.498,16.081-4.125l-30.146,53.078l4.245,2.41L76.407,65.8
	c0.991-1.459,1.866-3.005,2.621-4.617c0.893-1.9,1.61-3.896,2.134-5.974c0.659-2.616,1.015-5.354,1.015-8.176
	c0-18.459-15.019-33.477-33.478-33.477S15.223,28.575,15.223,47.034S30.241,80.512,48.7,80.512z M48.7,18.441
	c15.768,0,28.594,12.828,28.594,28.594c0,4.254-0.94,8.289-2.613,11.922l-2.407,4.238c-5.159,7.502-13.8,12.434-23.572,12.434
	c-15.767,0-28.594-12.827-28.594-28.594C20.107,31.269,32.935,18.441,48.7,18.441z"/>
</svg>
