<?xml version="1.0" encoding="iso-8859-1"?>
<!-- Generator: Adobe Illustrator 16.1.1, SVG Export Plug-In . SVG Version: 6.00 Build 0)  -->
<!DOCTYPE svg PUBLIC "-//W3C//DTD SVG 1.1//EN" "http://www.w3.org/Graphics/SVG/1.1/DTD/svg11.dtd">
<svg version="1.1" id="&#x30EC;&#x30A4;&#x30E4;&#x30FC;_1"
	 xmlns="http://www.w3.org/2000/svg" xmlns:xlink="http://www.w3.org/1999/xlink" x="0px" y="0px" width="100px" height="150px"
	 viewBox="0 0 100 150" style="enable-background:new 0 0 100 150;" xml:space="preserve">
<path style="fill:#040000;" d="M63.191,69.58c9.326-4.542,15.77-14.103,15.77-25.139v-1.607c0-15.414-12.564-27.954-28.009-27.954
	H24.07v-0.02h-5.115v117.147h5.115v-0.025h30.045c15.697,0,30.889-14.765,30.889-31.921v-1.808
	C85.004,84.567,74.449,73.731,63.191,69.58z M24.07,19.74h26.881c12.797,0,23.208,10.359,23.208,23.094v1.607
	c0,12.734-10.41,23.093-23.208,23.093H24.07V19.74z M80.215,100.063c0,14.482-13.043,27.073-26.1,27.073H24.07V72.798h30.045
	c13.057,0,26.1,10.975,26.1,25.458V100.063z"/>
</svg>
