<?xml version="1.0" encoding="iso-8859-1"?>
<!-- Generator: Adobe Illustrator 16.1.1, SVG Export Plug-In . SVG Version: 6.00 Build 0)  -->
<!DOCTYPE svg PUBLIC "-//W3C//DTD SVG 1.1//EN" "http://www.w3.org/Graphics/SVG/1.1/DTD/svg11.dtd">
<svg version="1.1" id="&#x30EC;&#x30A4;&#x30E4;&#x30FC;_1"
	 xmlns="http://www.w3.org/2000/svg" xmlns:xlink="http://www.w3.org/1999/xlink" x="0px" y="0px" width="100px" height="150px"
	 viewBox="0 0 100 150" style="enable-background:new 0 0 100 150;" xml:space="preserve">
<path style="fill:#040000;" d="M80.553,104.543c-0.834,12.428-11.156,22.285-23.732,22.285h-9.68
	c-13.119,0-23.793-10.725-23.793-23.906V43.768c0-13.181,10.675-23.903,23.793-23.903h9.68c13.119,0,23.793,10.723,23.793,23.903
	v3.646h4.838v-3.646c0-15.861-12.844-28.767-28.633-28.767h-9.679c-15.787,0-28.632,12.905-28.632,28.767v59.154
	c0,15.863,12.846,28.768,28.632,28.768h9.679c15.248,0,27.746-12.035,28.584-27.146H80.553z"/>
</svg>
