<?xml version="1.0" encoding="iso-8859-1"?>
<!-- Generator: Adobe Illustrator 16.1.1, SVG Export Plug-In . SVG Version: 6.00 Build 0)  -->
<!DOCTYPE svg PUBLIC "-//W3C//DTD SVG 1.1//EN" "http://www.w3.org/Graphics/SVG/1.1/DTD/svg11.dtd">
<svg version="1.1" id="&#x30EC;&#x30A4;&#x30E4;&#x30FC;_1"
	 xmlns="http://www.w3.org/2000/svg" xmlns:xlink="http://www.w3.org/1999/xlink" x="0px" y="0px" width="100px" height="150px"
	 viewBox="0 0 100 150" style="enable-background:new 0 0 100 150;" xml:space="preserve">
<path style="fill:#040000;" d="M68.561,31.264c-13.104-10.45-31.523-16.206-51.869-16.206c-0.674,0-1.345,0.021-2.016,0.04v4.839
	v107.191v4.851c0.67,0.016,1.341,0.029,2.016,0.029c20.852,0,38.717-5.19,51.671-15.01c13.687-10.375,20.92-25.266,20.92-43.063
	C89.281,57.075,81.923,41.92,68.561,31.264z M19.515,127.123V19.945c38.373,1.027,64.929,22.931,64.929,53.991
	C84.442,105.525,59.056,126.185,19.515,127.123z"/>
</svg>
