<?xml version="1.0" encoding="iso-8859-1"?>
<!-- Generator: Adobe Illustrator 16.1.1, SVG Export Plug-In . SVG Version: 6.00 Build 0)  -->
<!DOCTYPE svg PUBLIC "-//W3C//DTD SVG 1.1//EN" "http://www.w3.org/Graphics/SVG/1.1/DTD/svg11.dtd">
<svg version="1.1" id="&#x30EC;&#x30A4;&#x30E4;&#x30FC;_1"
	 xmlns="http://www.w3.org/2000/svg" xmlns:xlink="http://www.w3.org/1999/xlink" x="0px" y="0px" width="100px" height="150px"
	 viewBox="0 0 100 150" style="enable-background:new 0 0 100 150;" xml:space="preserve">
<path style="fill:#040000;" d="M80.967,20.099c2.66-0.214,5.363-0.337,8.113-0.337c0.068,0,0.135,0.003,0.203,0.003v-4.668
	c-0.672-0.02-1.344-0.04-2.018-0.04c-20.346,0-38.764,5.756-51.868,16.206C22.036,41.92,14.676,57.075,14.676,73.936
	c0,17.797,7.232,32.687,20.919,43.063c12.954,9.819,30.821,15.01,51.67,15.01c0.676,0,1.346-0.015,2.018-0.029v-4.851V75.209
	c-0.014,0-0.021,0-0.035,0v-0.577H50.267v4.816h34.176v47.674c-39.54-0.938-64.926-21.598-64.926-53.188
	C19.517,43.823,44.475,22.317,80.967,20.099z"/>
</svg>
