<?xml version="1.0" encoding="iso-8859-1"?>
<!-- Generator: Adobe Illustrator 16.1.1, SVG Export Plug-In . SVG Version: 6.00 Build 0)  -->
<!DOCTYPE svg PUBLIC "-//W3C//DTD SVG 1.1//EN" "http://www.w3.org/Graphics/SVG/1.1/DTD/svg11.dtd">
<svg version="1.1" id="&#x30EC;&#x30A4;&#x30E4;&#x30FC;_1"
	 xmlns="http://www.w3.org/2000/svg" xmlns:xlink="http://www.w3.org/1999/xlink" x="0px" y="0px" width="100px" height="150px"
	 viewBox="0 0 100 150" style="enable-background:new 0 0 100 150;" xml:space="preserve">
<g>
	<path style="fill:#040000;" d="M48.979,132.008c-10.106,0-19.525-6.166-26.521-17.362c-6.773-10.844-10.504-25.211-10.504-40.458
		c0-15.245,3.729-29.612,10.504-40.455c6.995-11.197,16.414-17.363,26.521-17.363c10.108,0,19.528,6.167,26.524,17.363
		c6.771,10.843,10.502,25.21,10.502,40.455c0,15.246-3.73,29.614-10.502,40.458C68.509,125.842,59.089,132.008,48.979,132.008
		L48.979,132.008z M48.979,21.199c-17.752,0-32.195,23.771-32.195,52.989c0,29.219,14.443,52.991,32.195,52.991
		c17.752,0,32.198-23.771,32.198-52.991C81.177,44.971,66.731,21.199,48.979,21.199L48.979,21.199z"/>
</g>
</svg>
