<?xml version="1.0" encoding="iso-8859-1"?>
<!-- Generator: Adobe Illustrator 16.1.1, SVG Export Plug-In . SVG Version: 6.00 Build 0)  -->
<!DOCTYPE svg PUBLIC "-//W3C//DTD SVG 1.1//EN" "http://www.w3.org/Graphics/SVG/1.1/DTD/svg11.dtd">
<svg version="1.1" id="&#x30EC;&#x30A4;&#x30E4;&#x30FC;_1"
	 xmlns="http://www.w3.org/2000/svg" xmlns:xlink="http://www.w3.org/1999/xlink" x="0px" y="0px" width="100px" height="150px"
	 viewBox="0 0 100 150" style="enable-background:new 0 0 100 150;" xml:space="preserve">
<path style="fill:#040000;" d="M75.502,114.407c6.772-10.967,10.503-25.496,10.503-40.915c0-15.417-3.729-29.947-10.503-40.913
	C68.508,21.256,59.088,15.019,48.98,15.019s-19.526,6.237-26.521,17.561c-6.773,10.966-10.505,25.496-10.505,40.913
	c0,15.419,3.73,29.948,10.505,40.915c6.994,11.323,16.413,17.56,26.521,17.56c6.959,0,13.588-2.954,19.323-8.486l7.892,8.527
	l3.524-3.338l-8.121-8.782C72.966,118.219,74.274,116.397,75.502,114.407z M48.98,127.082c-17.753,0-32.196-24.04-32.196-53.59
	c0-29.549,14.443-53.589,32.196-53.589s32.196,24.04,32.196,53.589c0,17.491-5.062,33.048-12.872,42.836l-11.928-12.894
	l-3.523,3.338l12.168,13.154C60.293,124.471,54.819,127.082,48.98,127.082z"/>
</svg>
