<?xml version="1.0" encoding="iso-8859-1"?>
<!-- Generator: Adobe Illustrator 16.1.1, SVG Export Plug-In . SVG Version: 6.00 Build 0)  -->
<!DOCTYPE svg PUBLIC "-//W3C//DTD SVG 1.1//EN" "http://www.w3.org/Graphics/SVG/1.1/DTD/svg11.dtd">
<svg version="1.1" id="&#x30EC;&#x30A4;&#x30E4;&#x30FC;_1"
	 xmlns="http://www.w3.org/2000/svg" xmlns:xlink="http://www.w3.org/1999/xlink" x="0px" y="0px" width="100px" height="150px"
	 viewBox="0 0 100 150" style="enable-background:new 0 0 100 150;" xml:space="preserve">
<g>
	<path style="fill:#040000;" d="M48.932,132.008c-18.118,0-32.859-14.896-32.859-33.206h4.694c0,15.693,12.636,28.463,28.165,28.463
		c8.098,0,16.177-3.572,21.614-9.56c4.806-5.291,7.137-11.934,6.561-18.701c-1.49-17.587-11.28-27.588-28.307-28.921l0.01-0.154
		l-0.021,0.146C31.894,67.684,21.81,57.388,21.81,42.534c0-15.188,12.226-27.542,27.253-27.542
		c14.034,0,25.688,10.624,27.113,24.712l-4.67,0.481c-1.18-11.658-10.827-20.448-22.443-20.448
		c-12.438,0-22.559,10.227-22.559,22.798c0,17.67,16.008,21.857,22.917,22.84c19.189,1.599,30.681,13.389,32.362,33.226
		c0.688,8.107-2.074,16.032-7.781,22.313C67.6,127.965,58.461,132.008,48.932,132.008L48.932,132.008z"/>
</g>
</svg>
